<svg data-v-423bf9ae="" xmlns="http://www.w3.org/2000/svg" viewBox="0 0 368 90" class="iconLeft"><!----><!----><!----><g data-v-423bf9ae="" id="1fae4f1e-8ab5-40df-8516-519d6f95635f" fill="white" transform="matrix(6.036216979508284,0,0,6.036216979508284,62.285620066818694,-0.2112681037406503)"><path d="M5.15 8.54L5.15 7.22L9.94 7.22L9.94 12.29L8.79 12.29L8.67 11.23L8.67 11.23Q7.52 12.46 5.36 12.46L5.36 12.46L5.36 12.46Q3.04 12.46 1.83 11.23L1.83 11.23L1.83 11.23Q0.63 10.00 0.63 7.49L0.63 7.49L0.63 7.49Q0.63 5.00 1.88 3.76L1.88 3.76L1.88 3.76Q3.12 2.52 5.50 2.52L5.50 2.52L5.50 2.52Q6.79 2.52 7.79 2.90L7.79 2.90L7.79 2.90Q8.79 3.29 9.37 4.07L9.37 4.07L9.37 4.07Q9.94 4.84 9.94 5.96L9.94 5.96L8.36 5.96L8.36 5.96Q8.36 4.93 7.58 4.38L7.58 4.38L7.58 4.38Q6.80 3.84 5.53 3.84L5.53 3.84L5.53 3.84Q3.86 3.84 3.05 4.70L3.05 4.70L3.05 4.70Q2.24 5.56 2.24 7.42L2.24 7.42L2.24 7.57L2.24 7.57Q2.24 9.45 3.02 10.30L3.02 10.30L3.02 10.30Q3.81 11.14 5.40 11.14L5.40 11.14L5.40 11.14Q6.87 11.14 7.64 10.51L7.64 10.51L7.64 10.51Q8.40 9.87 8.40 8.62L8.40 8.62L8.40 8.54L5.15 8.54ZM14.90 12.46L14.90 12.46Q13.15 12.46 12.27 11.52L12.27 11.52L12.27 11.52Q11.40 10.57 11.40 8.61L11.40 8.61L11.40 8.61Q11.40 6.65 12.27 5.71L12.27 5.71L12.27 5.71Q13.15 4.76 14.90 4.76L14.90 4.76L14.90 4.76Q16.65 4.76 17.53 5.71L17.53 5.71L17.53 5.71Q18.41 6.65 18.41 8.61L18.41 8.61L18.41 8.61Q18.41 10.57 17.53 11.52L17.53 11.52L17.53 11.52Q16.65 12.46 14.90 12.46L14.90 12.46ZM14.90 11.27L14.90 11.27Q15.96 11.27 16.44 10.65L16.44 10.65L16.44 10.65Q16.93 10.02 16.93 8.68L16.93 8.68L16.93 8.54L16.93 8.54Q16.93 7.20 16.44 6.57L16.44 6.57L16.44 6.57Q15.96 5.95 14.90 5.95L14.90 5.95L14.90 5.95Q13.85 5.95 13.36 6.57L13.36 6.57L13.36 6.57Q12.88 7.20 12.88 8.54L12.88 8.54L12.88 8.68L12.88 8.68Q12.88 10.02 13.36 10.65L13.36 10.65L13.36 10.65Q13.85 11.27 14.90 11.27L14.90 11.27ZM22.96 12.46L22.96 12.46Q21.18 12.46 20.31 11.52L20.31 11.52L20.31 11.52Q19.45 10.58 19.45 8.61L19.45 8.61L19.45 8.61Q19.45 6.64 20.31 5.70L20.31 5.70L20.31 5.70Q21.18 4.76 22.96 4.76L22.96 4.76L22.96 4.76Q24.57 4.76 25.37 5.63L25.37 5.63L25.37 5.63Q26.17 6.51 26.17 8.41L26.17 8.41L26.17 8.97L20.93 8.97L20.93 8.97Q20.99 10.16 21.47 10.73L21.47 10.73L21.47 10.73Q21.95 11.30 22.97 11.30L22.97 11.30L22.97 11.30Q23.77 11.30 24.26 10.92L24.26 10.92L24.26 10.92Q24.75 10.54 24.75 9.76L24.75 9.76L26.17 9.76L26.17 9.76Q26.17 11.07 25.28 11.77L25.28 11.77L25.28 11.77Q24.39 12.46 22.96 12.46L22.96 12.46ZM20.96 7.88L24.67 7.88L24.67 7.88Q24.67 5.92 22.96 5.92L22.96 5.92L22.96 5.92Q22.01 5.92 21.53 6.39L21.53 6.39L21.53 6.39Q21.06 6.86 20.96 7.88L20.96 7.88ZM31.64 12.29L31.64 2.69L33.07 2.69L37.72 8.93L37.72 8.93Q37.87 9.14 38.12 9.53L38.12 9.53L38.19 9.51L38.18 8.81L38.18 2.69L39.65 2.69L39.65 12.29L38.25 12.29L33.59 5.98L33.59 5.98Q33.47 5.84 33.35 5.64L33.35 5.64L33.35 5.64Q33.22 5.45 33.17 5.36L33.17 5.36L33.10 5.38L33.11 6.09L33.11 12.29L31.64 12.29ZM45.85 8.54L45.85 7.22L50.64 7.22L50.64 12.29L49.49 12.29L49.36 11.23L49.36 11.23Q48.22 12.46 46.06 12.46L46.06 12.46L46.06 12.46Q43.74 12.46 42.53 11.23L42.53 11.23L42.53 11.23Q41.33 10.00 41.33 7.49L41.33 7.49L41.33 7.49Q41.33 5.00 42.57 3.76L42.57 3.76L42.57 3.76Q43.82 2.52 46.20 2.52L46.20 2.52L46.20 2.52Q47.49 2.52 48.49 2.90L48.49 2.90L48.49 2.90Q49.49 3.29 50.06 4.07L50.06 4.07L50.06 4.07Q50.64 4.84 50.64 5.96L50.64 5.96L49.06 5.96L49.06 5.96Q49.06 4.93 48.28 4.38L48.28 4.38L48.28 4.38Q47.50 3.84 46.23 3.84L46.23 3.84L46.23 3.84Q44.56 3.84 43.75 4.70L43.75 4.70L43.75 4.70Q42.94 5.56 42.94 7.42L42.94 7.42L42.94 7.57L42.94 7.57Q42.94 9.45 43.72 10.30L43.72 10.30L43.72 10.30Q44.51 11.14 46.10 11.14L46.10 11.14L46.10 11.14Q47.57 11.14 48.34 10.51L48.34 10.51L48.34 10.51Q49.10 9.87 49.10 8.62L49.10 8.62L49.10 8.54L45.85 8.54Z"></path></g><!----><g data-v-423bf9ae="" id="fe4d512c-2628-46c6-912d-a4852f7f7d6b" transform="matrix(2.8125,0,0,2.8125,-21.194407999515533,0)" stroke="none" fill="white"><path d="M18.396 26.495L7.807 15.905 18.432 5.28l.707.707-9.918 9.918 9.882 9.883z"></path><path d="M23.194 1v4.194H19V1h4.194m1-1H18v6.194h6.194V0zM23.194 26.806V31H19v-4.194h4.194m1-1H18V32h6.194v-6.194z"></path></g><!----></svg>